<svg xmlns="http://www.w3.org/2000/svg" xmlns:xlink="http://www.w3.org/1999/xlink" id="Layer_1" x="0px" y="0px" viewBox="0 0 1244.2 258.5" style="enable-background:new 0 0 1244.2 258.5;" xml:space="preserve"><style type="text/css">	.st0{fill:#2A2A4B;}</style><g id="Layer_2_00000083788753038644083990000016069504012070863786_">	<g id="Layer_1-2">		<g id="Wordmark_White">			<path class="st0" d="M1239.7,225.6c-9,10.7-20.5,19.1-33.5,24.4c-13.2,5.6-27.4,8.5-41.8,8.5c-13,0.1-25.9-2.2-38-6.8    c-23.1-8.6-41.4-26.5-50.7-49.4c-4.9-11.7-7.4-24.8-7.4-39.1c-0.1-12.4,2-24.8,6.2-36.5c4-11.2,10.1-21.5,18-30.4    c7.9-8.9,17.4-16,28.2-21c11-5.2,23.2-7.8,36.9-7.8c12-0.1,23.9,2.5,34.8,7.6c10.4,4.9,19.7,11.8,27.4,20.2    c7.8,8.7,13.9,18.7,18,29.7c4.3,11.6,6.5,23.9,6.4,36.3c0,4.7-0.3,9.4-1.1,14H1116c0.7,6.2,2.4,12.2,5.3,17.8    c2.7,5.2,6.3,9.8,10.8,13.6c4.5,3.8,9.6,6.8,15.1,8.9c5.9,2.2,12.1,3.3,18.3,3.2c10.6,0,19.9-2.3,27.8-7    c7.9-4.7,14.1-9.4,18.3-14.2L1239.7,225.6z M1193.9,138.8c-0.5-4.1-1.7-8.2-3.6-11.9c-1.9-3.9-4.4-7.4-7.6-10.4    c-3.2-3.1-7-5.5-11.2-7.2c-4.4-1.8-9.2-2.7-14-2.7c-10.3,0-19.2,3.3-26.5,9.8c-7.3,6.6-11.6,14-12.9,22.3L1193.9,138.8z"></path>			<path class="st0" d="M1052.2,254.8h-49.7V5.2h49.7V254.8z"></path>			<path class="st0" d="M794.8,254.8V5.2h49.7v79.2c14.4-11.3,31.7-17,51.8-17c12.1-0.1,24,2.5,35,7.4c10.8,4.8,20.5,11.6,28.7,20.2    c8.3,8.8,14.9,19,19.3,30.2c4.7,12,7.1,24.9,7,37.8c0.1,12.1-2,24.1-6.2,35.4c-3.9,10.6-9.8,20.4-17.2,28.9    c-8.3,9.8-18.7,17.5-30.5,22.7c-12.2,5.5-25.4,8.4-38.8,8.3c-9.1,0-18.2-1.4-26.8-4.4c-8.6-2.9-24.6-14.2-24.6-14.2v14.9    L794.8,254.8z M844.4,190.3c4.9,6.9,11.3,12.5,18.7,16.4c7.8,4.2,16.6,6.3,25.5,6.2c13,0.1,25.4-5,34.6-14.2    c4.4-4.5,7.9-9.8,10.2-15.7c2.5-6.4,3.7-13.2,3.6-20c0-6.5-1.1-12.9-3.4-18.9c-2.2-5.9-5.4-11.3-9.5-16.1    c-4.1-4.7-9.2-8.5-14.9-11.1c-6.1-2.8-12.8-4.2-19.5-4.2c-9.1-0.1-18,2-26.1,6.2c-7.6,4-14.2,9.6-19.3,16.4V190.3z"></path>			<path class="st0" d="M770.6,254.8h-47.5V240c-7.1,6.3-15.4,11.1-24.3,14.2c-8.7,2.9-17.8,4.4-27,4.3c-13.4,0-26.7-2.8-38.9-8.3    c-11.8-5.2-22.2-12.9-30.6-22.7c-7.5-8.5-13.3-18.3-17.3-28.9c-4.2-11.3-6.4-23.3-6.3-35.3c-0.1-12.9,2.2-25.8,7-37.8    c4.5-11.2,11-21.5,19.4-30.2c8.2-8.5,17.9-15.4,28.7-20.2c20.5-8.9,43.6-9.8,64.8-2.4c8.8,3.2,17.1,7.8,24.5,13.6V71.5h47.5    L770.6,254.8z M720.9,135.5c-5.1-6.9-11.7-12.5-19.3-16.5c-8-4.2-17-6.4-26.1-6.2c-13.2-0.3-25.8,5.3-34.4,15.3    c-4.1,4.8-7.3,10.2-9.5,16.1c-4.6,12.6-4.5,26.4,0.2,38.9c2.3,5.9,5.8,11.2,10.2,15.7c9.2,9.2,21.6,14.3,34.6,14.2    c8.9,0.1,17.7-2,25.5-6.2c7.4-3.9,13.9-9.6,18.7-16.4V135.5z"></path>			<path class="st0" d="M558.6,225.6c-9,10.7-20.5,19.1-33.5,24.4c-13.2,5.6-27.4,8.5-41.8,8.5c-13,0.1-25.9-2.2-38-6.8    c-23-8.6-41.4-26.5-50.7-49.4c-4.9-11.7-7.4-24.8-7.4-39.1c-0.1-12.4,2-24.8,6.2-36.5c4-11.2,10.1-21.5,18-30.4    c7.8-8.9,17.4-16,28.2-21c11-5.2,23.3-7.8,36.9-7.8c12-0.1,23.9,2.5,34.8,7.6c10.4,4.9,19.7,11.8,27.4,20.2    c7.8,8.7,13.9,18.7,18,29.7c4.3,11.6,6.5,23.9,6.4,36.3c0.1,4.7-0.3,9.4-1.1,14H435c0.6,6.2,2.4,12.2,5.3,17.8    c2.7,5.2,6.3,9.8,10.8,13.6c4.5,3.8,9.6,6.8,15.1,8.9c5.9,2.2,12.1,3.3,18.3,3.2c10.6,0,19.9-2.3,27.8-7    c7.9-4.7,14.1-9.4,18.3-14.2L558.6,225.6z M512.9,138.8c-0.5-4.1-1.8-8.2-3.6-11.9c-1.9-3.9-4.4-7.4-7.6-10.4    c-3.2-3.1-7-5.5-11.2-7.2c-4.4-1.8-9.2-2.7-14-2.7c-10.3,0-19.2,3.3-26.5,9.8c-7.3,6.6-11.6,14-12.9,22.3L512.9,138.8z"></path>			<path class="st0" d="M302.2,254.8V114.1H268V71.5h34.2V5.2h49.7v66.2h34.2v42.6h-34.2v140.6H302.2z"></path>			<path class="st0" d="M198.6,27.4c-0.1-7.4,2.9-14.5,8.3-19.5c11.1-10.6,28.5-10.6,39.6,0c5.4,5,8.4,12.1,8.3,19.5    c0.1,7.4-2.9,14.5-8.3,19.5c-11.1,10.6-28.5,10.6-39.6,0C201.5,41.9,198.5,34.8,198.6,27.4z M251.3,254.8h-49.2V71.3h49.2V254.8z    "></path>			<path class="st0" d="M84.8,5.2c14.3,0,25.6,1.5,34,4.6c8.1,2.9,15.5,7.2,22,12.8c6.9,6.2,12.6,13.7,16.8,22.1    c4.3,8.8,6.6,18.4,6.4,28.2c0,8.2-1.7,16.4-5,23.9c-3.3,7.6-7,13.5-11,17.8c11.2,5.5,20.2,14,27.1,25.5    c6.9,11.6,10.5,24.8,10.3,38.3c0.1,10.3-2,20.4-6.2,29.8c-4,9-9.6,17.1-16.6,24.1c-7.3,7.2-16.1,12.7-25.7,16.4    c-10.2,4.1-23.4,6.1-39.6,6.1H0V5.2H84.8z M48.1,101.5H82c7.6,0,13.3-0.8,17.1-2.5c3.6-1.5,6.9-3.7,9.6-6.4    c2.2-2.4,3.9-5.2,5.2-8.2c2.6-6.1,2.6-13.1,0-19.2c-1.3-3-3-5.8-5.2-8.2c-2.8-2.7-6-4.9-9.6-6.4C95.3,48.8,89.6,48,82,48H48.1    V101.5z M96.2,212c8.3,0,15-1,20-3c4.6-1.7,8.7-4.5,12.1-8c11.9-12.9,11.9-32.7,0-45.6c-3.4-3.5-7.5-6.3-12.1-8c-5-2-11.7-3-20-3    H48.1V212H96.2z"></path>		</g>	</g></g></svg>