<svg xmlns="http://www.w3.org/2000/svg" xmlns:xlink="http://www.w3.org/1999/xlink" viewBox="0 0 701 754"><defs><style>.cls-1{isolation:isolate;}.cls-2{fill:#fff;}.cls-3{fill:url(#linear-gradient);}.cls-4{mix-blend-mode:multiply;fill:url(#linear-gradient-2);}</style><linearGradient id="linear-gradient" x1="154.84" y1="496.67" x2="427.7" y2="223.81" gradientUnits="userSpaceOnUse"><stop offset="0" stop-color="#e50051"></stop><stop offset="0.18" stop-color="#eb143d"></stop><stop offset="0.52" stop-color="#f6341c"></stop><stop offset="0.81" stop-color="#fd4907"></stop><stop offset="1" stop-color="#ff5000"></stop></linearGradient><linearGradient id="linear-gradient-2" x1="261.15" y1="536.03" x2="477.83" y2="319.34" xlink:href="#linear-gradient"></linearGradient></defs><g class="cls-1"><g id="Layer_1" data-name="Layer 1"><g id="Symbol_RGB" data-name="Symbol RGB"><path id="Tall_-_White" data-name="Tall - White" class="cls-2" d="M244.8,580.91a13.82,13.82,0,0,1-13.72-12.15l-44-395.95h0a14.17,14.17,0,0,1-.08-1.47,13.81,13.81,0,0,1,13.79-13.81l0,0H355.68a13.81,13.81,0,0,1,13.81,13.81V580.91H244.74"></path><path id="Ball_-_White" data-name="Ball - White" class="cls-2" d="M369.49,274.46A153.23,153.23,0,1,1,216.27,427.69,153.22,153.22,0,0,1,369.49,274.46"></path><path id="Tall" class="cls-3" d="M244.8,580.91a13.82,13.82,0,0,1-13.72-12.15l-44-395.95h0a14.17,14.17,0,0,1-.08-1.47,13.81,13.81,0,0,1,13.79-13.81l0,0H355.68a13.81,13.81,0,0,1,13.81,13.81V580.91H244.74"></path><path id="Ball_-_Multiplied" data-name="Ball - Multiplied" class="cls-4" d="M369.49,274.46A153.23,153.23,0,1,1,216.27,427.69,153.22,153.22,0,0,1,369.49,274.46"></path></g></g></g></svg>